<svg xmlns="http://www.w3.org/2000/svg" viewBox="0 0 575 420" width="575" height="420" preserveAspectRatio="xMidYMid meet" style="width: 100%; height: 100%; transform: translate3d(0px, 0px, 0px); content-visibility: visible;"><defs><clipPath id="__lottie_element_115"><rect width="575" height="420" x="0" y="0"/></clipPath><clipPath id="__lottie_element_120"><path d="M0,0 L534,0 L534,9 L0,9z"/></clipPath><clipPath id="__lottie_element_121"><path fill="#ffffff" clip-rule="nonzero" d=" M352.99798583984375,-2.0929999351501465 C348.3169860839844,-2.1050000190734863 152.26699829101562,-2.9200000762939453 145.45199584960938,-2.0929999351501465 C136.0399932861328,-0.9509999752044678 136.843994140625,12.359000205993652 145.45199584960938,12.395000457763672 C150.1230010986328,12.414999961853027 347.0509948730469,12.218000411987305 352.99798583984375,12.395000457763672 C362.885986328125,12.689000129699707 363.15899658203125,-2.065999984741211 352.99798583984375,-2.0929999351501465"/></clipPath><clipPath id="__lottie_element_127"><path d="M0,0 L534,0 L534,9 L0,9z"/></clipPath><clipPath id="__lottie_element_128"><path fill="#ffffff" clip-rule="nonzero" d=" M352.99798583984375,-2.0929999351501465 C348.3169860839844,-2.1050000190734863 152.26699829101562,-2.9200000762939453 145.45199584960938,-2.0929999351501465 C136.0399932861328,-0.9509999752044678 136.843994140625,12.359000205993652 145.45199584960938,12.395000457763672 C150.1230010986328,12.414999961853027 347.0509948730469,12.218000411987305 352.99798583984375,12.395000457763672 C362.885986328125,12.689000129699707 363.15899658203125,-2.065999984741211 352.99798583984375,-2.0929999351501465"/></clipPath><clipPath id="__lottie_element_134"><path d="M0,0 L534,0 L534,9 L0,9z"/></clipPath><clipPath id="__lottie_element_135"><path fill="#ffffff" clip-rule="nonzero" d=" M352.99798583984375,-2.0929999351501465 C348.3169860839844,-2.1050000190734863 152.26699829101562,-2.9200000762939453 145.45199584960938,-2.0929999351501465 C136.0399932861328,-0.9509999752044678 136.843994140625,12.359000205993652 145.45199584960938,12.395000457763672 C150.1230010986328,12.414999961853027 347.0509948730469,12.218000411987305 352.99798583984375,12.395000457763672 C362.885986328125,12.689000129699707 363.15899658203125,-2.065999984741211 352.99798583984375,-2.0929999351501465"/></clipPath><clipPath id="__lottie_element_141"><path d="M0,0 L534,0 L534,9 L0,9z"/></clipPath><clipPath id="__lottie_element_142"><path fill="#ffffff" clip-rule="nonzero" d=" M352.99798583984375,-2.0929999351501465 C348.3169860839844,-2.1050000190734863 152.26699829101562,-2.9200000762939453 145.45199584960938,-2.0929999351501465 C136.0399932861328,-0.9509999752044678 136.843994140625,12.359000205993652 145.45199584960938,12.395000457763672 C150.1230010986328,12.414999961853027 347.0509948730469,12.218000411987305 352.99798583984375,12.395000457763672 C362.885986328125,12.689000129699707 363.15899658203125,-2.065999984741211 352.99798583984375,-2.0929999351501465"/></clipPath><clipPath id="__lottie_element_148"><path d="M0,0 L534,0 L534,9 L0,9z"/></clipPath><clipPath id="__lottie_element_149"><path fill="#ffffff" clip-rule="nonzero" d=" M352.99798583984375,-2.0929999351501465 C348.3169860839844,-2.1050000190734863 152.26699829101562,-2.9200000762939453 145.45199584960938,-2.0929999351501465 C136.0399932861328,-0.9509999752044678 136.843994140625,12.359000205993652 145.45199584960938,12.395000457763672 C150.1230010986328,12.414999961853027 347.0509948730469,12.218000411987305 352.99798583984375,12.395000457763672 C362.885986328125,12.689000129699707 363.15899658203125,-2.065999984741211 352.99798583984375,-2.0929999351501465"/></clipPath><clipPath id="__lottie_element_155"><path d="M0,0 L534,0 L534,9 L0,9z"/></clipPath><clipPath id="__lottie_element_156"><path fill="#ffffff" clip-rule="nonzero" d=" M352.99798583984375,-2.0929999351501465 C348.3169860839844,-2.1050000190734863 152.26699829101562,-2.9200000762939453 145.45199584960938,-2.0929999351501465 C136.0399932861328,-0.9509999752044678 136.843994140625,12.359000205993652 145.45199584960938,12.395000457763672 C150.1230010986328,12.414999961853027 347.0509948730469,12.218000411987305 352.99798583984375,12.395000457763672 C362.885986328125,12.689000129699707 363.15899658203125,-2.065999984741211 352.99798583984375,-2.0929999351501465"/></clipPath><clipPath id="__lottie_element_162"><path d="M0,0 L534,0 L534,9 L0,9z"/></clipPath><clipPath id="__lottie_element_163"><path fill="#ffffff" clip-rule="nonzero" d=" M352.99798583984375,-2.0929999351501465 C348.3169860839844,-2.1050000190734863 152.26699829101562,-2.9200000762939453 145.45199584960938,-2.0929999351501465 C136.0399932861328,-0.9509999752044678 136.843994140625,12.359000205993652 145.45199584960938,12.395000457763672 C150.1230010986328,12.414999961853027 347.0509948730469,12.218000411987305 352.99798583984375,12.395000457763672 C362.885986328125,12.689000129699707 363.15899658203125,-2.065999984741211 352.99798583984375,-2.0929999351501465"/></clipPath><clipPath id="__lottie_element_169"><path d="M0,0 L534,0 L534,9 L0,9z"/></clipPath><clipPath id="__lottie_element_170"><path fill="#ffffff" clip-rule="nonzero" d=" M352.99798583984375,-2.0929999351501465 C348.3169860839844,-2.1050000190734863 152.26699829101562,-2.9200000762939453 145.45199584960938,-2.0929999351501465 C136.0399932861328,-0.9509999752044678 136.843994140625,12.359000205993652 145.45199584960938,12.395000457763672 C150.1230010986328,12.414999961853027 347.0509948730469,12.218000411987305 352.99798583984375,12.395000457763672 C362.885986328125,12.689000129699707 363.15899658203125,-2.065999984741211 352.99798583984375,-2.0929999351501465"/></clipPath><clipPath id="__lottie_element_176"><path d="M0,0 L534,0 L534,9 L0,9z"/></clipPath><clipPath id="__lottie_element_177"><path fill="#ffffff" clip-rule="nonzero" d=" M352.99798583984375,-2.0929999351501465 C348.3169860839844,-2.1050000190734863 152.26699829101562,-2.9200000762939453 145.45199584960938,-2.0929999351501465 C136.0399932861328,-0.9509999752044678 136.843994140625,12.359000205993652 145.45199584960938,12.395000457763672 C150.1230010986328,12.414999961853027 347.0509948730469,12.218000411987305 352.99798583984375,12.395000457763672 C362.885986328125,12.689000129699707 363.15899658203125,-2.065999984741211 352.99798583984375,-2.0929999351501465"/></clipPath><clipPath id="__lottie_element_183"><path d="M0,0 L534,0 L534,9 L0,9z"/></clipPath><clipPath id="__lottie_element_184"><path fill="#ffffff" clip-rule="nonzero" d=" M352.99798583984375,-2.0929999351501465 C348.3169860839844,-2.1050000190734863 152.26699829101562,-2.9200000762939453 145.45199584960938,-2.0929999351501465 C136.0399932861328,-0.9509999752044678 136.843994140625,12.359000205993652 145.45199584960938,12.395000457763672 C150.1230010986328,12.414999961853027 347.0509948730469,12.218000411987305 352.99798583984375,12.395000457763672 C362.885986328125,12.689000129699707 363.15899658203125,-2.065999984741211 352.99798583984375,-2.0929999351501465"/></clipPath><clipPath id="__lottie_element_190"><path d="M0,0 L534,0 L534,9 L0,9z"/></clipPath><clipPath id="__lottie_element_191"><path fill="#ffffff" clip-rule="nonzero" d=" M352.99798583984375,-2.0929999351501465 C348.3169860839844,-2.1050000190734863 152.26699829101562,-2.9200000762939453 145.45199584960938,-2.0929999351501465 C136.0399932861328,-0.9509999752044678 136.843994140625,12.359000205993652 145.45199584960938,12.395000457763672 C150.1230010986328,12.414999961853027 347.0509948730469,12.218000411987305 352.99798583984375,12.395000457763672 C362.885986328125,12.689000129699707 363.15899658203125,-2.065999984741211 352.99798583984375,-2.0929999351501465"/></clipPath><clipPath id="__lottie_element_197"><path d="M0,0 L534,0 L534,9 L0,9z"/></clipPath><clipPath id="__lottie_element_198"><path fill="#ffffff" clip-rule="nonzero" d=" M352.99798583984375,-2.0929999351501465 C348.3169860839844,-2.1050000190734863 152.26699829101562,-2.9200000762939453 145.45199584960938,-2.0929999351501465 C136.0399932861328,-0.9509999752044678 136.843994140625,12.359000205993652 145.45199584960938,12.395000457763672 C150.1230010986328,12.414999961853027 347.0509948730469,12.218000411987305 352.99798583984375,12.395000457763672 C362.885986328125,12.689000129699707 363.15899658203125,-2.065999984741211 352.99798583984375,-2.0929999351501465"/></clipPath><clipPath id="__lottie_element_204"><path d="M0,0 L534,0 L534,9 L0,9z"/></clipPath><clipPath id="__lottie_element_205"><path fill="#ffffff" clip-rule="nonzero" d=" M352.99798583984375,-2.0929999351501465 C348.3169860839844,-2.1050000190734863 152.26699829101562,-2.9200000762939453 145.45199584960938,-2.0929999351501465 C136.0399932861328,-0.9509999752044678 136.843994140625,12.359000205993652 145.45199584960938,12.395000457763672 C150.1230010986328,12.414999961853027 347.0509948730469,12.218000411987305 352.99798583984375,12.395000457763672 C362.885986328125,12.689000129699707 363.15899658203125,-2.065999984741211 352.99798583984375,-2.0929999351501465"/></clipPath><clipPath id="__lottie_element_211"><path d="M0,0 L534,0 L534,9 L0,9z"/></clipPath><clipPath id="__lottie_element_212"><path fill="#ffffff" clip-rule="nonzero" d=" M352.99798583984375,-2.0929999351501465 C348.3169860839844,-2.1050000190734863 152.26699829101562,-2.9200000762939453 145.45199584960938,-2.0929999351501465 C136.0399932861328,-0.9509999752044678 136.843994140625,12.359000205993652 145.45199584960938,12.395000457763672 C150.1230010986328,12.414999961853027 347.0509948730469,12.218000411987305 352.99798583984375,12.395000457763672 C362.885986328125,12.689000129699707 363.15899658203125,-2.065999984741211 352.99798583984375,-2.0929999351501465"/></clipPath><clipPath id="__lottie_element_218"><path d="M0,0 L534,0 L534,9 L0,9z"/></clipPath><clipPath id="__lottie_element_219"><path fill="#ffffff" clip-rule="nonzero" d=" M352.99798583984375,-2.0929999351501465 C348.3169860839844,-2.1050000190734863 152.26699829101562,-2.9200000762939453 145.45199584960938,-2.0929999351501465 C136.0399932861328,-0.9509999752044678 136.843994140625,12.359000205993652 145.45199584960938,12.395000457763672 C150.1230010986328,12.414999961853027 347.0509948730469,12.218000411987305 352.99798583984375,12.395000457763672 C362.885986328125,12.689000129699707 363.15899658203125,-2.065999984741211 352.99798583984375,-2.0929999351501465"/></clipPath><clipPath id="__lottie_element_225"><path d="M0,0 L534,0 L534,9 L0,9z"/></clipPath><clipPath id="__lottie_element_226"><path fill="#ffffff" clip-rule="nonzero" d=" M352.99798583984375,-2.0929999351501465 C348.3169860839844,-2.1050000190734863 152.26699829101562,-2.9200000762939453 145.45199584960938,-2.0929999351501465 C136.0399932861328,-0.9509999752044678 136.843994140625,12.359000205993652 145.45199584960938,12.395000457763672 C150.1230010986328,12.414999961853027 347.0509948730469,12.218000411987305 352.99798583984375,12.395000457763672 C362.885986328125,12.689000129699707 363.15899658203125,-2.065999984741211 352.99798583984375,-2.0929999351501465"/></clipPath><clipPath id="__lottie_element_232"><path d="M0,0 L534,0 L534,9 L0,9z"/></clipPath><clipPath id="__lottie_element_233"><path fill="#ffffff" clip-rule="nonzero" d=" M352.99798583984375,-2.0929999351501465 C348.3169860839844,-2.1050000190734863 152.26699829101562,-2.9200000762939453 145.45199584960938,-2.0929999351501465 C136.0399932861328,-0.9509999752044678 136.843994140625,12.359000205993652 145.45199584960938,12.395000457763672 C150.1230010986328,12.414999961853027 347.0509948730469,12.218000411987305 352.99798583984375,12.395000457763672 C362.885986328125,12.689000129699707 363.15899658203125,-2.065999984741211 352.99798583984375,-2.0929999351501465"/></clipPath><clipPath id="__lottie_element_239"><path d="M0,0 L534,0 L534,9 L0,9z"/></clipPath><clipPath id="__lottie_element_240"><path fill="#ffffff" clip-rule="nonzero" d=" M352.99798583984375,-2.0929999351501465 C348.3169860839844,-2.1050000190734863 152.26699829101562,-2.9200000762939453 145.45199584960938,-2.0929999351501465 C136.0399932861328,-0.9509999752044678 136.843994140625,12.359000205993652 145.45199584960938,12.395000457763672 C150.1230010986328,12.414999961853027 347.0509948730469,12.218000411987305 352.99798583984375,12.395000457763672 C362.885986328125,12.689000129699707 363.15899658203125,-2.065999984741211 352.99798583984375,-2.0929999351501465"/></clipPath></defs><g clip-path="url(#__lottie_element_115)"><g transform="matrix(1,0,0,1,84.24899291992188,91.22200012207031)" opacity="1" style="display: block;"><g opacity="1" transform="matrix(1,0,0,1,67.9010009765625,46.375)"><path fill="rgb(255,255,255)" fill-opacity="1" d=" M-4.949999809265137,21.233999252319336 C-4.949999809265137,21.233999252319336 4.949999809265137,21.233999252319336 4.949999809265137,21.233999252319336 C4.949999809265137,21.233999252319336 4.949999809265137,-21.233999252319336 4.949999809265137,-21.233999252319336 C4.949999809265137,-21.233999252319336 -4.949999809265137,-21.233999252319336 -4.949999809265137,-21.233999252319336 C-4.949999809265137,-21.233999252319336 -4.949999809265137,21.233999252319336 -4.949999809265137,21.233999252319336z"/></g><g opacity="1" transform="matrix(1,0,0,1,67.92400360107422,16.270000457763672)"><path fill="rgb(225,192,51)" fill-opacity="1" d=" M-152.1739959716797,-108.49099731445312 C-152.1739959716797,-108.49099731445312 422.82598876953125,-108.49099731445312 422.82598876953125,-108.49099731445312 C422.82598876953125,-108.49099731445312 422.82598876953125,391.5090026855469 422.82598876953125,391.5090026855469 C422.82598876953125,391.5090026855469 -152.1739959716797,391.5090026855469 -152.1739959716797,391.5090026855469 C-152.1739959716797,391.5090026855469 -152.1739959716797,-108.49099731445312 -152.1739959716797,-108.49099731445312z M-152.1739959716797,391.5090026855469 C-152.1739959716797,391.5090026855469 422.82598876953125,391.5090026855469 422.82598876953125,391.5090026855469 C422.82598876953125,391.5090026855469 422.82598876953125,-108.49099731445312 422.82598876953125,-108.49099731445312 C422.82598876953125,-108.49099731445312 -152.1739959716797,-108.49099731445312 -152.1739959716797,-108.49099731445312 C-152.1739959716797,-108.49099731445312 -152.1739959716797,391.5090026855469 -152.1739959716797,391.5090026855469z M15.989999771118164,0 C15.989999771118164,8.847999572753906 8.831999778747559,16.020000457763672 0.0010000000474974513,16.020000457763672 C-8.829999923706055,16.020000457763672 -15.989999771118164,8.847999572753906 -15.989999771118164,0 C-15.989999771118164,-8.847999572753906 -8.829999923706055,-16.020000457763672 0.0010000000474974513,-16.020000457763672 C8.831999778747559,-16.020000457763672 15.989999771118164,-8.847999572753906 15.989999771118164,0z"/><g opacity="1" transform="matrix(1,0,0,1,0,0)"/></g><g opacity="1" transform="matrix(1,0,0,1,68.63600158691406,16.3439998626709)"><path fill="rgb(255,220,73)" fill-opacity="1" d=" M-152.88600158691406,-108.56500244140625 C-152.88600158691406,-108.56500244140625 422.114013671875,-108.56500244140625 422.114013671875,-108.56500244140625 C422.114013671875,-108.56500244140625 422.114013671875,391.43499755859375 422.114013671875,391.43499755859375 C422.114013671875,391.43499755859375 -152.88600158691406,391.43499755859375 -152.88600158691406,391.43499755859375 C-152.88600158691406,391.43499755859375 -152.88600158691406,-108.56500244140625 -152.88600158691406,-108.56500244140625z M-152.88600158691406,391.43499755859375 C-152.88600158691406,391.43499755859375 422.114013671875,391.43499755859375 422.114013671875,391.43499755859375 C422.114013671875,391.43499755859375 422.114013671875,-108.56500244140625 422.114013671875,-108.56500244140625 C422.114013671875,-108.56500244140625 -152.88600158691406,-108.56500244140625 -152.88600158691406,-108.56500244140625 C-152.88600158691406,-108.56500244140625 -152.88600158691406,391.43499755859375 -152.88600158691406,391.43499755859375z M15.281999588012695,-0.07199999690055847 C15.281999588012695,8.776000022888184 8.121000289916992,15.942000389099121 -0.7099999785423279,15.942000389099121 C-0.9409999847412109,15.942000389099121 -1.1710000038146973,15.932999610900879 -1.4079999923706055,15.923999786376953 C-1.5859999656677246,15.914999961853027 -1.7619999647140503,15.906999588012695 -1.9390000104904175,15.887999534606934 C-2.3359999656677246,15.86299991607666 -2.742000102996826,15.809000015258789 -3.1489999294281006,15.756999969482422 C-3.184000015258789,15.748000144958496 -3.2290000915527344,15.73799991607666 -3.2730000019073486,15.729000091552734 C-3.493000030517578,15.70199966430664 -3.7139999866485596,15.657999992370605 -3.934999942779541,15.61400032043457 C-9.003999710083008,14.579999923706055 -13.206999778747559,11.137999534606934 -15.281999588012695,6.5279998779296875 C-15.043999671936035,-10.972000122070312 1.465000033378601,-15.942000389099121 6.910999774932861,-14.157999992370605 C6.919000148773193,-14.14900016784668 6.935999870300293,-14.14900016784668 6.946000099182129,-14.140000343322754 C6.9710001945495605,-14.123000144958496 7.006999969482422,-14.104999542236328 7.0329999923706055,-14.088000297546387 C7.315999984741211,-13.937000274658203 7.590000152587891,-13.777000427246094 7.854000091552734,-13.600000381469727 C8.13700008392334,-13.423999786376953 8.41100025177002,-13.23900032043457 8.6850004196167,-13.043000221252441 C8.748000144958496,-12.989999771118164 8.807999610900879,-12.946999549865723 8.861000061035156,-12.91100025177002 C9.100000381469727,-12.734000205993652 9.329999923706055,-12.54800033569336 9.5600004196167,-12.354000091552734 C9.805999755859375,-12.14900016784668 10.053000450134277,-11.928000450134277 10.293000221252441,-11.699000358581543 C10.319000244140625,-11.67199993133545 10.354000091552734,-11.63599967956543 10.388999938964844,-11.609999656677246 C10.628000259399414,-11.380000114440918 10.857000350952148,-11.140999794006348 11.07800006866455,-10.902000427246094 C11.07800006866455,-10.902000427246094 11.130999565124512,-10.848999977111816 11.130999565124512,-10.848999977111816 C11.343999862670898,-10.609999656677246 11.54699993133545,-10.36299991607666 11.75,-10.114999771118164 C11.767999649047852,-10.088000297546387 11.793999671936035,-10.060999870300293 11.810999870300293,-10.03499984741211 C11.996999740600586,-9.803999900817871 12.182000160217285,-9.565999984741211 12.348999977111816,-9.317999839782715 C12.376999855041504,-9.281999588012695 12.402999877929688,-9.246999740600586 12.420999526977539,-9.211999893188477 C12.614999771118164,-8.937999725341797 12.791999816894531,-8.663999557495117 12.968000411987305,-8.380999565124512 C13.100000381469727,-8.15999984741211 13.223999977111816,-7.939000129699707 13.347999572753906,-7.709000110626221 C13.470999717712402,-7.48799991607666 13.595000267028809,-7.256999969482422 13.701000213623047,-7.01800012588501 C13.789999961853027,-6.841000080108643 13.878000259399414,-6.65500020980835 13.947999954223633,-6.478000164031982 C14.001999855041504,-6.355000019073486 14.053999900817871,-6.239999771118164 14.107000350952148,-6.114999771118164 C14.258000373840332,-5.735000133514404 14.39799976348877,-5.355000019073486 14.52299976348877,-4.965000152587891 C14.574999809265137,-4.797999858856201 14.628999710083008,-4.620999813079834 14.673999786376953,-4.452000141143799 C14.725000381469727,-4.275000095367432 14.769000053405762,-4.098999977111816 14.812999725341797,-3.921999931335449 C14.866999626159668,-3.7090001106262207 14.920000076293945,-3.496000051498413 14.954999923706055,-3.2850000858306885 C15.008000373840332,-3.063999891281128 15.043999671936035,-2.8429999351501465 15.079999923706055,-2.621000051498413 C15.140000343322754,-2.25 15.1850004196167,-1.8680000305175781 15.220000267028809,-1.4889999628067017 C15.23799991607666,-1.3289999961853027 15.246999740600586,-1.1690000295639038 15.255999565124512,-1.0019999742507935 C15.27299976348877,-0.6919999718666077 15.281999588012695,-0.382999986410141 15.281999588012695,-0.07199999690055847z"/><g opacity="1" transform="matrix(1,0,0,1,0,0)"/></g><g opacity="1" transform="matrix(1,0,0,1,67.92500305175781,78.91600036621094)"><path fill="rgb(255,71,107)" fill-opacity="1" d=" M-152.1750030517578,-171.13699340820312 C-152.1750030517578,-171.13699340820312 422.82501220703125,-171.13699340820312 422.82501220703125,-171.13699340820312 C422.82501220703125,-171.13699340820312 422.82501220703125,328.8630065917969 422.82501220703125,328.8630065917969 C422.82501220703125,328.8630065917969 -152.1750030517578,328.8630065917969 -152.1750030517578,328.8630065917969 C-152.1750030517578,328.8630065917969 -152.1750030517578,-171.13699340820312 -152.1750030517578,-171.13699340820312z M-152.1750030517578,328.8630065917969 C-152.1750030517578,328.8630065917969 422.82501220703125,328.8630065917969 422.82501220703125,328.8630065917969 C422.82501220703125,328.8630065917969 422.82501220703125,-171.13699340820312 422.82501220703125,-171.13699340820312 C422.82501220703125,-171.13699340820312 -152.1750030517578,-171.13699340820312 -152.1750030517578,-171.13699340820312 C-152.1750030517578,-171.13699340820312 -152.1750030517578,328.8630065917969 -152.1750030517578,328.8630065917969z M11.654000282287598,12.456999778747559 C11.654000282287598,12.456999778747559 -11.656000137329102,12.456999778747559 -11.656000137329102,12.456999778747559 C-18.52199935913086,12.456999778747559 -24.089000701904297,6.880000114440918 -24.089000701904297,0.0010000000474974513 C-24.089000701904297,-6.879000186920166 -18.52199935913086,-12.456999778747559 -11.656000137329102,-12.456999778747559 C-11.656000137329102,-12.456999778747559 11.654000282287598,-12.456999778747559 11.654000282287598,-12.456999778747559 C18.520999908447266,-12.456999778747559 24.089000701904297,-6.879000186920166 24.089000701904297,0.0010000000474974513 C24.089000701904297,6.880000114440918 18.520999908447266,12.456999778747559 11.654000282287598,12.456999778747559z"/><g opacity="1" transform="matrix(1,0,0,1,0,0)"/></g><g opacity="1" transform="matrix(1,0,0,1,52.80400085449219,77.80500030517578)"><path fill="rgb(238,47,94)" fill-opacity="1" d=" M-137.05299377441406,-170.02699279785156 C-137.05299377441406,-170.02699279785156 437.9469909667969,-170.02699279785156 437.9469909667969,-170.02699279785156 C437.9469909667969,-170.02699279785156 437.9469909667969,329.9729919433594 437.9469909667969,329.9729919433594 C437.9469909667969,329.9729919433594 -137.05299377441406,329.9729919433594 -137.05299377441406,329.9729919433594 C-137.05299377441406,329.9729919433594 -137.05299377441406,-170.02699279785156 -137.05299377441406,-170.02699279785156z M-137.05299377441406,329.9729919433594 C-137.05299377441406,329.9729919433594 437.9469909667969,329.9729919433594 437.9469909667969,329.9729919433594 C437.9469909667969,329.9729919433594 437.9469909667969,-170.02699279785156 437.9469909667969,-170.02699279785156 C437.9469909667969,-170.02699279785156 -137.05299377441406,-170.02699279785156 -137.05299377441406,-170.02699279785156 C-137.05299377441406,-170.02699279785156 -137.05299377441406,329.9729919433594 -137.05299377441406,329.9729919433594z M8.968000411987305,-11.347000122070312 C8.968000411987305,-11.347000122070312 3.4660000801086426,-11.347000122070312 3.4660000801086426,-11.347000122070312 C-3.4010000228881836,-11.347000122070312 -8.968000411987305,-5.769000053405762 -8.968000411987305,1.1109999418258667 C-8.968000411987305,5.355000019073486 -6.84499979019165,9.097999572753906 -3.6089999675750732,11.347000122070312 C-4.785999774932861,2.2730000019073486 0.4320000112056732,-7.98199987411499 8.968000411987305,-11.347000122070312z"/><g opacity="1" transform="matrix(1,0,0,1,0,0)"/></g><g opacity="1" transform="matrix(1,0,0,1,67.92500305175781,98.97100067138672)"><path fill="rgb(255,71,107)" fill-opacity="1" d=" M-152.1739959716797,-191.19200134277344 C-152.1739959716797,-191.19200134277344 422.82598876953125,-191.19200134277344 422.82598876953125,-191.19200134277344 C422.82598876953125,-191.19200134277344 422.82598876953125,308.8080139160156 422.82598876953125,308.8080139160156 C422.82598876953125,308.8080139160156 -152.1739959716797,308.8080139160156 -152.1739959716797,308.8080139160156 C-152.1739959716797,308.8080139160156 -152.1739959716797,-191.19200134277344 -152.1739959716797,-191.19200134277344z M-152.1739959716797,308.8080139160156 C-152.1739959716797,308.8080139160156 422.82598876953125,308.8080139160156 422.82598876953125,308.8080139160156 C422.82598876953125,308.8080139160156 422.82598876953125,-191.19200134277344 422.82598876953125,-191.19200134277344 C422.82598876953125,-191.19200134277344 -152.1739959716797,-191.19200134277344 -152.1739959716797,-191.19200134277344 C-152.1739959716797,-191.19200134277344 -152.1739959716797,308.8080139160156 -152.1739959716797,308.8080139160156z M24.68600082397461,12.456999778747559 C24.68600082397461,12.456999778747559 -24.68600082397461,12.456999778747559 -24.68600082397461,12.456999778747559 C-31.55299949645996,12.456999778747559 -37.119998931884766,6.880000114440918 -37.119998931884766,0 C-37.119998931884766,-6.879000186920166 -31.55299949645996,-12.456999778747559 -24.68600082397461,-12.456999778747559 C-24.68600082397461,-12.456999778747559 24.68600082397461,-12.456999778747559 24.68600082397461,-12.456999778747559 C31.55299949645996,-12.456999778747559 37.119998931884766,-6.879000186920166 37.119998931884766,0 C37.119998931884766,6.880000114440918 31.55299949645996,12.456999778747559 24.68600082397461,12.456999778747559z"/><g opacity="1" transform="matrix(1,0,0,1,0,0)"/></g><g opacity="1" transform="matrix(1,0,0,1,39.77199935913086,97.86100006103516)"><path fill="rgb(238,47,94)" fill-opacity="1" d=" M-124.02200317382812,-190.08200073242188 C-124.02200317382812,-190.08200073242188 450.9779968261719,-190.08200073242188 450.9779968261719,-190.08200073242188 C450.9779968261719,-190.08200073242188 450.9779968261719,309.9179992675781 450.9779968261719,309.9179992675781 C450.9779968261719,309.9179992675781 -124.02200317382812,309.9179992675781 -124.02200317382812,309.9179992675781 C-124.02200317382812,309.9179992675781 -124.02200317382812,-190.08200073242188 -124.02200317382812,-190.08200073242188z M-124.02200317382812,309.9179992675781 C-124.02200317382812,309.9179992675781 450.9779968261719,309.9179992675781 450.9779968261719,309.9179992675781 C450.9779968261719,309.9179992675781 450.9779968261719,-190.08200073242188 450.9779968261719,-190.08200073242188 C450.9779968261719,-190.08200073242188 -124.02200317382812,-190.08200073242188 -124.02200317382812,-190.08200073242188 C-124.02200317382812,-190.08200073242188 -124.02200317382812,309.9179992675781 -124.02200317382812,309.9179992675781z M8.968000411987305,-11.347000122070312 C8.968000411987305,-11.347000122070312 3.4660000801086426,-11.347000122070312 3.4660000801086426,-11.347000122070312 C-3.4000000953674316,-11.347000122070312 -8.968000411987305,-5.769000053405762 -8.968000411987305,1.1100000143051147 C-8.968000411987305,5.355000019073486 -6.84499979019165,9.097999572753906 -3.6089999675750732,11.347000122070312 C-4.7870001792907715,2.2720000743865967 0.4320000112056732,-7.982999801635742 8.968000411987305,-11.347000122070312z"/><g opacity="1" transform="matrix(1,0,0,1,0,0)"/></g><g opacity="1" transform="matrix(1,0,0,1,128.24000549316406,160.93099975585938)"><path fill="rgb(255,71,107)" fill-opacity="1" d=" M-212.48899841308594,-253.15199279785156 C-212.48899841308594,-253.15199279785156 362.510986328125,-253.15199279785156 362.510986328125,-253.15199279785156 C362.510986328125,-253.15199279785156 362.510986328125,246.84800720214844 362.510986328125,246.84800720214844 C362.510986328125,246.84800720214844 -212.48899841308594,246.84800720214844 -212.48899841308594,246.84800720214844 C-212.48899841308594,246.84800720214844 -212.48899841308594,-253.15199279785156 -212.48899841308594,-253.15199279785156z M-212.48899841308594,246.84800720214844 C-212.48899841308594,246.84800720214844 362.510986328125,246.84800720214844 362.510986328125,246.84800720214844 C362.510986328125,246.84800720214844 362.510986328125,-253.15199279785156 362.510986328125,-253.15199279785156 C362.510986328125,-253.15199279785156 -212.48899841308594,-253.15199279785156 -212.48899841308594,-253.15199279785156 C-212.48899841308594,-253.15199279785156 -212.48899841308594,246.84800720214844 -212.48899841308594,246.84800720214844z M-7.359000205993652,19.46500015258789 C-7.359000205993652,19.46500015258789 -7.359000205993652,-19.46500015258789 -7.359000205993652,-19.46500015258789 C0.7699999809265137,-19.46500015258789 7.359000205993652,-12.86299991607666 7.359000205993652,-4.71999979019165 C7.359000205993652,-4.71999979019165 7.359000205993652,4.7179999351501465 7.359000205993652,4.7179999351501465 C7.359000205993652,12.862000465393066 0.7699999809265137,19.46500015258789 -7.359000205993652,19.46500015258789z"/><g opacity="1" transform="matrix(1,0,0,1,0,0)"/></g><g opacity="1" transform="matrix(1,0,0,1,7.609000205993652,160.93099975585938)"><path fill="rgb(255,71,107)" fill-opacity="1" d=" M-91.85900115966797,-253.15199279785156 C-91.85900115966797,-253.15199279785156 483.1409912109375,-253.15199279785156 483.1409912109375,-253.15199279785156 C483.1409912109375,-253.15199279785156 483.1409912109375,246.84800720214844 483.1409912109375,246.84800720214844 C483.1409912109375,246.84800720214844 -91.85900115966797,246.84800720214844 -91.85900115966797,246.84800720214844 C-91.85900115966797,246.84800720214844 -91.85900115966797,-253.15199279785156 -91.85900115966797,-253.15199279785156z M-91.85900115966797,246.84800720214844 C-91.85900115966797,246.84800720214844 483.1409912109375,246.84800720214844 483.1409912109375,246.84800720214844 C483.1409912109375,246.84800720214844 483.1409912109375,-253.15199279785156 483.1409912109375,-253.15199279785156 C483.1409912109375,-253.15199279785156 -91.85900115966797,-253.15199279785156 -91.85900115966797,-253.15199279785156 C-91.85900115966797,-253.15199279785156 -91.85900115966797,246.84800720214844 -91.85900115966797,246.84800720214844z M7.359000205993652,-19.46500015258789 C7.359000205993652,-19.46500015258789 7.359000205993652,19.46500015258789 7.359000205993652,19.46500015258789 C-0.7689999938011169,19.46500015258789 -7.359000205993652,12.86299991607666 -7.359000205993652,4.7179999351501465 C-7.359000205993652,4.7179999351501465 -7.359000205993652,-4.718999862670898 -7.359000205993652,-4.718999862670898 C-7.359000205993652,-12.86299991607666 -0.7689999938011169,-19.46500015258789 7.359000205993652,-19.46500015258789z"/><g opacity="1" transform="matrix(1,0,0,1,0,0)"/></g><g opacity="1" transform="matrix(1,0,0,1,67.9260025024414,199.16400146484375)"><path fill="rgb(73,130,255)" fill-opacity="1" d=" M-152.1750030517578,-291.385009765625 C-152.1750030517578,-291.385009765625 422.82501220703125,-291.385009765625 422.82501220703125,-291.385009765625 C422.82501220703125,-291.385009765625 422.82501220703125,208.61500549316406 422.82501220703125,208.61500549316406 C422.82501220703125,208.61500549316406 -152.1750030517578,208.61500549316406 -152.1750030517578,208.61500549316406 C-152.1750030517578,208.61500549316406 -152.1750030517578,-291.385009765625 -152.1750030517578,-291.385009765625z M-152.1750030517578,208.61500549316406 C-152.1750030517578,208.61500549316406 422.82501220703125,208.61500549316406 422.82501220703125,208.61500549316406 C422.82501220703125,208.61500549316406 422.82501220703125,-291.385009765625 422.82501220703125,-291.385009765625 C422.82501220703125,-291.385009765625 -152.1750030517578,-291.385009765625 -152.1750030517578,-291.385009765625 C-152.1750030517578,-291.385009765625 -152.1750030517578,208.61500549316406 -152.1750030517578,208.61500549316406z M54.724998474121094,-82.9749984741211 C54.724998474121094,-82.9749984741211 54.724998474121094,91.44499969482422 54.724998474121094,91.44499969482422 C54.724998474121094,92.2750015258789 54.60499954223633,93.07499694824219 54.3650016784668,93.8550033569336 C50.20399856567383,92.40499877929688 45.744998931884766,91.1050033569336 41.03499984741211,89.95500183105469 C26.985000610351562,86.55500030517578 10.694999694824219,84.61499786376953 -6.675000190734863,84.61499786376953 C-24.184999465942383,84.61499786376953 -40.595001220703125,86.59500122070312 -54.724998474121094,90.04499816894531 C-54.724998474121094,90.04499816894531 -54.724998474121094,-82.9749984741211 -54.724998474121094,-82.9749984741211 C-54.724998474121094,-88.98500061035156 -48.26499938964844,-93.8550033569336 -40.30500030517578,-93.8550033569336 C-40.30500030517578,-93.8550033569336 40.30500030517578,-93.8550033569336 40.30500030517578,-93.8550033569336 C48.26499938964844,-93.8550033569336 54.724998474121094,-88.98500061035156 54.724998474121094,-82.9749984741211z"/><g opacity="1" transform="matrix(1,0,0,1,0,0)"/></g><g opacity="1" transform="matrix(1,0,0,1,108.59600067138672,199.16400146484375)"><path fill="rgb(102,146,248)" fill-opacity="1" d=" M-192.84500122070312,-291.385009765625 C-192.84500122070312,-291.385009765625 382.1549987792969,-291.385009765625 382.1549987792969,-291.385009765625 C382.1549987792969,-291.385009765625 382.1549987792969,208.61500549316406 382.1549987792969,208.61500549316406 C382.1549987792969,208.61500549316406 -192.84500122070312,208.61500549316406 -192.84500122070312,208.61500549316406 C-192.84500122070312,208.61500549316406 -192.84500122070312,-291.385009765625 -192.84500122070312,-291.385009765625z M-192.84500122070312,208.61500549316406 C-192.84500122070312,208.61500549316406 382.1549987792969,208.61500549316406 382.1549987792969,208.61500549316406 C382.1549987792969,208.61500549316406 382.1549987792969,-291.385009765625 382.1549987792969,-291.385009765625 C382.1549987792969,-291.385009765625 -192.84500122070312,-291.385009765625 -192.84500122070312,-291.385009765625 C-192.84500122070312,-291.385009765625 -192.84500122070312,208.61500549316406 -192.84500122070312,208.61500549316406z M14.055000305175781,-82.9749984741211 C14.055000305175781,-82.9749984741211 14.055000305175781,91.44499969482422 14.055000305175781,91.44499969482422 C14.055000305175781,92.2750015258789 13.9350004196167,93.07499694824219 13.694999694824219,93.8550033569336 C9.534000396728516,92.40499877929688 5.074999809265137,91.1050033569336 0.36500000953674316,89.95500183105469 C0.36500000953674316,89.95500183105469 0.36500000953674316,-82.9749984741211 0.36500000953674316,-82.9749984741211 C0.36500000953674316,-86.875 -2.3550000190734863,-90.29499816894531 -6.445000171661377,-92.21499633789062 C-8.654999732971191,-93.25499725341797 -11.265000343322754,-93.8550033569336 -14.055000305175781,-93.8550033569336 C-14.055000305175781,-93.8550033569336 -0.36500000953674316,-93.8550033569336 -0.36500000953674316,-93.8550033569336 C7.59499979019165,-93.8550033569336 14.055000305175781,-88.98500061035156 14.055000305175781,-82.9749984741211z"/><g opacity="1" transform="matrix(1,0,0,1,0,0)"/></g><g opacity="1" transform="matrix(1,0,0,1,68.33699798583984,171.6750030517578)"><path fill="rgb(62,112,225)" fill-opacity="1" d=" M-152.58700561523438,-263.89599609375 C-152.58700561523438,-263.89599609375 422.4129943847656,-263.89599609375 422.4129943847656,-263.89599609375 C422.4129943847656,-263.89599609375 422.4129943847656,236.10400390625 422.4129943847656,236.10400390625 C422.4129943847656,236.10400390625 -152.58700561523438,236.10400390625 -152.58700561523438,236.10400390625 C-152.58700561523438,236.10400390625 -152.58700561523438,-263.89599609375 -152.58700561523438,-263.89599609375z M-152.58700561523438,236.10400390625 C-152.58700561523438,236.10400390625 422.4129943847656,236.10400390625 422.4129943847656,236.10400390625 C422.4129943847656,236.10400390625 422.4129943847656,-263.89599609375 422.4129943847656,-263.89599609375 C422.4129943847656,-263.89599609375 -152.58700561523438,-263.89599609375 -152.58700561523438,-263.89599609375 C-152.58700561523438,-263.89599609375 -152.58700561523438,236.10400390625 -152.58700561523438,236.10400390625z M0,36.7760009765625 C20.27199935913086,36.7760009765625 36.70800018310547,20.309999465942383 36.70800018310547,0 C36.70800018310547,-20.31100082397461 20.27199935913086,-36.7760009765625 0,-36.7760009765625 C-20.273000717163086,-36.7760009765625 -36.70800018310547,-20.31100082397461 -36.70800018310547,0 C-36.70800018310547,20.309999465942383 -20.273000717163086,36.7760009765625 0,36.7760009765625z"/><g opacity="1" transform="matrix(1,0,0,1,0,0)"/></g><g opacity="1" transform="matrix(1,0,0,1,65.44999694824219,167.9550018310547)"><path fill="rgb(234,236,246)" fill-opacity="1" d=" M-149.6999969482422,-260.1759948730469 C-149.6999969482422,-260.1759948730469 425.29998779296875,-260.1759948730469 425.29998779296875,-260.1759948730469 C425.29998779296875,-260.1759948730469 425.29998779296875,239.82400512695312 425.29998779296875,239.82400512695312 C425.29998779296875,239.82400512695312 -149.6999969482422,239.82400512695312 -149.6999969482422,239.82400512695312 C-149.6999969482422,239.82400512695312 -149.6999969482422,-260.1759948730469 -149.6999969482422,-260.1759948730469z M-149.6999969482422,239.82400512695312 C-149.6999969482422,239.82400512695312 425.29998779296875,239.82400512695312 425.29998779296875,239.82400512695312 C425.29998779296875,239.82400512695312 425.29998779296875,-260.1759948730469 425.29998779296875,-260.1759948730469 C425.29998779296875,-260.1759948730469 -149.6999969482422,-260.1759948730469 -149.6999969482422,-260.1759948730469 C-149.6999969482422,-260.1759948730469 -149.6999969482422,239.82400512695312 -149.6999969482422,239.82400512695312z M-34.64500045776367,0 C-34.64500045776367,19.170000076293945 -19.134000778198242,34.70899963378906 0,34.70899963378906 C19.132999420166016,34.70899963378906 34.64500045776367,19.170000076293945 34.64500045776367,0 C34.64500045776367,-19.17099952697754 19.132999420166016,-34.70899963378906 0,-34.70899963378906 C-19.134000778198242,-34.70899963378906 -34.64500045776367,-19.17099952697754 -34.64500045776367,0z"/><g opacity="1" transform="matrix(1,0,0,1,0,0)"/></g><g opacity="1" transform="matrix(1,0,0,1,67.0999984741211,170.02099609375)"><path fill="rgb(255,255,255)" fill-opacity="1" d=" M-151.3489990234375,-262.2430114746094 C-151.3489990234375,-262.2430114746094 423.6510009765625,-262.2430114746094 423.6510009765625,-262.2430114746094 C423.6510009765625,-262.2430114746094 423.6510009765625,237.7570037841797 423.6510009765625,237.7570037841797 C423.6510009765625,237.7570037841797 -151.3489990234375,237.7570037841797 -151.3489990234375,237.7570037841797 C-151.3489990234375,237.7570037841797 -151.3489990234375,-262.2430114746094 -151.3489990234375,-262.2430114746094z M-151.3489990234375,237.7570037841797 C-151.3489990234375,237.7570037841797 423.6510009765625,237.7570037841797 423.6510009765625,237.7570037841797 C423.6510009765625,237.7570037841797 423.6510009765625,-262.2430114746094 423.6510009765625,-262.2430114746094 C423.6510009765625,-262.2430114746094 -151.3489990234375,-262.2430114746094 -151.3489990234375,-262.2430114746094 C-151.3489990234375,-262.2430114746094 -151.3489990234375,237.7570037841797 -151.3489990234375,237.7570037841797z M1.6510000228881836,-32.64500045776367 C11.664999961853027,-32.64500045776367 20.68000030517578,-28.382999420166016 27.0049991607666,-21.57699966430664 C30.78499984741211,-16.017000198364258 32.994998931884766,-9.300000190734863 32.994998931884766,-2.065000057220459 C32.994998931884766,17.104999542236328 17.486000061035156,32.64500045776367 -1.6490000486373901,32.64500045776367 C-11.661999702453613,32.64500045776367 -20.68000030517578,28.382999420166016 -27.0049991607666,21.57699966430664 C-30.78499984741211,16.017000198364258 -32.994998931884766,9.300999641418457 -32.994998931884766,2.063999891281128 C-32.994998931884766,-17.104999542236328 -17.483999252319336,-32.64500045776367 1.6510000228881836,-32.64500045776367z"/><g opacity="1" transform="matrix(1,0,0,1,0,0)"/></g></g><g transform="matrix(1,0,0,1,152.79798889160156,251.6639862060547)" opacity="1" style="display: block;"><g opacity="1" transform="matrix(1,0,0,1,10.14900016784668,10.168000221252441)"><path fill="rgb(82,68,104)" fill-opacity="1" d=" M-9.89900016784668,0 C-9.89900016784668,5.4770002365112305 -5.466000080108643,9.918000221252441 -0.0010000000474974513,9.918000221252441 C5.466000080108643,9.918000221252441 9.89900016784668,5.4770002365112305 9.89900016784668,0 C9.89900016784668,-5.4770002365112305 5.466000080108643,-9.918000221252441 -0.0010000000474974513,-9.918000221252441 C-5.466000080108643,-9.918000221252441 -9.89900016784668,-5.4770002365112305 -9.89900016784668,0z"/></g></g><g transform="matrix(1,0,0,1,140.33499145507812,63.22100067138672)" opacity="0.26653333333330614" style="display: block;"><g opacity="1" transform="matrix(1,0,0,1,13.041999816894531,7.802999973297119)"><path fill="rgb(153,209,60)" fill-opacity="1" d=" M-153.3780059814453,-72.02200317382812 C-153.3780059814453,-72.02200317382812 421.62200927734375,-72.02200317382812 421.62200927734375,-72.02200317382812 C421.62200927734375,-72.02200317382812 421.62200927734375,427.9779968261719 421.62200927734375,427.9779968261719 C421.62200927734375,427.9779968261719 -153.3780059814453,427.9779968261719 -153.3780059814453,427.9779968261719 C-153.3780059814453,427.9779968261719 -153.3780059814453,-72.02200317382812 -153.3780059814453,-72.02200317382812z M-153.3780059814453,427.9779968261719 C-153.3780059814453,427.9779968261719 421.62200927734375,427.9779968261719 421.62200927734375,427.9779968261719 C421.62200927734375,427.9779968261719 421.62200927734375,-72.02200317382812 421.62200927734375,-72.02200317382812 C421.62200927734375,-72.02200317382812 -153.3780059814453,-72.02200317382812 -153.3780059814453,-72.02200317382812 C-153.3780059814453,-72.02200317382812 -153.3780059814453,427.9779968261719 -153.3780059814453,427.9779968261719z M6.186999797821045,7.10099983215332 C4.630000114440918,7.10099983215332 3.075000047683716,6.5 1.8990000486373901,5.298999786376953 C1.5880000591278076,4.980999946594238 0.9160000085830688,4.447000026702881 -0.08500000089406967,4.447000026702881 C-0.9890000224113464,4.447000026702881 -1.625,4.88100004196167 -2.000999927520752,5.244999885559082 C-4.38100004196167,7.552000045776367 -8.182000160217285,7.488999843597412 -10.486000061035156,5.110000133514404 C-12.791999816894531,2.7290000915527344 -12.730999946594238,-1.0679999589920044 -10.35099983215332,-3.374000072479248 C-7.568999767303467,-6.067999839782715 -3.9230000972747803,-7.552999973297119 -0.08500000089406967,-7.552999973297119 C3.9110000133514404,-7.552999973297119 7.6620001792907715,-5.96999979019165 10.475000381469727,-3.0959999561309814 C12.791999816894531,-0.7279999852180481 12.751999855041504,3.072000026702881 10.383999824523926,5.389999866485596 C9.215999603271484,6.5329999923706055 7.702000141143799,7.10099983215332 6.186999797821045,7.10099983215332z"/><g opacity="1" transform="matrix(1,0,0,1,0,0)"/></g></g><g transform="matrix(1,0,0,1,124.4389877319336,41.98500061035156)" opacity="0.2334666666666938" style="display: block;"><g opacity="1" transform="matrix(1,0,0,1,28.4950008392334,10.89900016784668)"><path fill="rgb(153,209,60)" fill-opacity="1" d=" M-152.93499755859375,-53.882999420166016 C-152.93499755859375,-53.882999420166016 422.06500244140625,-53.882999420166016 422.06500244140625,-53.882999420166016 C422.06500244140625,-53.882999420166016 422.06500244140625,446.11700439453125 422.06500244140625,446.11700439453125 C422.06500244140625,446.11700439453125 -152.93499755859375,446.11700439453125 -152.93499755859375,446.11700439453125 C-152.93499755859375,446.11700439453125 -152.93499755859375,-53.882999420166016 -152.93499755859375,-53.882999420166016z M-152.93499755859375,446.11700439453125 C-152.93499755859375,446.11700439453125 422.06500244140625,446.11700439453125 422.06500244140625,446.11700439453125 C422.06500244140625,446.11700439453125 422.06500244140625,-53.882999420166016 422.06500244140625,-53.882999420166016 C422.06500244140625,-53.882999420166016 -152.93499755859375,-53.882999420166016 -152.93499755859375,-53.882999420166016 C-152.93499755859375,-53.882999420166016 -152.93499755859375,446.11700439453125 -152.93499755859375,446.11700439453125z M21.64299964904785,10.199000358581543 C20.124000549316406,10.199000358581543 18.604999542236328,9.62600040435791 17.437000274658203,8.47700023651123 C12.76200008392334,3.881999969482422 6.539999961853027,1.3509999513626099 -0.08299999684095383,1.3509999513626099 C-6.627999782562256,1.3509999513626099 -12.79800033569336,3.8340001106262207 -17.45599937438965,8.343999862670898 C-19.836000442504883,10.64900016784668 -23.635000228881836,10.588000297546387 -25.940000534057617,8.206999778747559 C-28.2450008392334,5.826000213623047 -28.18400001525879,2.0280001163482666 -25.80299949645996,-0.2770000100135803 C-18.895000457763672,-6.966000080108643 -9.760000228881836,-10.64900016784668 -0.08299999684095383,-10.64900016784668 C9.706999778747559,-10.64900016784668 18.916000366210938,-6.894999980926514 25.849000930786133,-0.07900000363588333 C28.211999893188477,2.243000030517578 28.2450008392334,6.041999816894531 25.92099952697754,8.406000137329102 C24.746999740600586,9.600000381469727 23.195999145507812,10.199000358581543 21.64299964904785,10.199000358581543z"/><g opacity="1" transform="matrix(1,0,0,1,0,0)"/></g></g><g transform="matrix(1,0,0,1,109.42498779296875,20.750999450683594)" opacity="0.7334666666666939" style="display: block;"><g opacity="1" transform="matrix(1,0,0,1,43.952999114990234,13.996999740600586)"><path fill="rgb(153,209,60)" fill-opacity="1" d=" M-153.3780059814453,-35.74700164794922 C-153.3780059814453,-35.74700164794922 421.62200927734375,-35.74700164794922 421.62200927734375,-35.74700164794922 C421.62200927734375,-35.74700164794922 421.62200927734375,464.25299072265625 421.62200927734375,464.25299072265625 C421.62200927734375,464.25299072265625 -153.3780059814453,464.25299072265625 -153.3780059814453,464.25299072265625 C-153.3780059814453,464.25299072265625 -153.3780059814453,-35.74700164794922 -153.3780059814453,-35.74700164794922z M-153.3780059814453,464.25299072265625 C-153.3780059814453,464.25299072265625 421.62200927734375,464.25299072265625 421.62200927734375,464.25299072265625 C421.62200927734375,464.25299072265625 421.62200927734375,-35.74700164794922 421.62200927734375,-35.74700164794922 C421.62200927734375,-35.74700164794922 -153.3780059814453,-35.74700164794922 -153.3780059814453,-35.74700164794922 C-153.3780059814453,-35.74700164794922 -153.3780059814453,464.25299072265625 -153.3780059814453,464.25299072265625z M37.09600067138672,13.293999671936035 C35.58300018310547,13.293999671936035 34.07099914550781,12.72599983215332 32.90399932861328,11.586000442504883 C24.10099983215332,2.98799991607666 12.383999824523926,-1.746999979019165 -0.08500000089406967,-1.746999979019165 C-12.468000411987305,-1.746999979019165 -24.125999450683594,2.937000036239624 -32.91299819946289,11.440999984741211 C-35.297000885009766,13.746999740600586 -39.09199905395508,13.682999610900879 -41.39699935913086,11.303000450134277 C-43.70199966430664,8.92199993133545 -43.638999938964844,5.123000144958496 -41.257999420166016,2.818000078201294 C-30.22100067138672,-7.863999843597412 -15.598999977111816,-13.746999740600586 -0.08500000089406967,-13.746999740600586 C15.53600025177002,-13.746999740600586 30.229000091552734,-7.798999786376953 41.2869987487793,3.002000093460083 C43.65700149536133,5.316999912261963 43.70199966430664,9.116000175476074 41.387001037597656,11.486000061035156 C40.21200180053711,12.6899995803833 38.654998779296875,13.293999671936035 37.09600067138672,13.293999671936035z"/><g opacity="1" transform="matrix(1,0,0,1,0,0)"/></g></g><g style="display: none;"><g><path/></g></g><g style="display: none;"><g><path/></g></g><g style="display: none;"><g><path/></g></g><g style="display: none;"><g><path/></g></g><g style="display: none;"><g><path/></g></g><g style="display: none;"><g><path/></g></g><g transform="matrix(1,0,0,1,367.3550109863281,128.48899841308594)" opacity="1" style="display: block;"><g opacity="1" transform="matrix(1,0,0,1,59.14899826049805,116.875)"><path fill="rgb(248,246,238)" fill-opacity="1" d=" M0.34599998593330383,-25.57200050354004 C0.34599998593330383,-25.57200050354004 14.534000396728516,-21.159000396728516 14.534000396728516,-21.159000396728516 C14.534000396728516,-21.159000396728516 0.44999998807907104,25.57200050354004 0.44999998807907104,25.57200050354004 C0.44999998807907104,25.57200050354004 -14.534000396728516,20.913000106811523 -14.534000396728516,20.913000106811523 C-14.534000396728516,20.913000106811523 0.34599998593330383,-25.57200050354004 0.34599998593330383,-25.57200050354004z"/></g><g opacity="1" transform="matrix(1,0,0,1,67.23899841308594,69.06700134277344)"><path fill="rgb(73,61,102)" fill-opacity="1" d=" M-435.593994140625,-198.55599975585938 C-435.593994140625,-198.55599975585938 139.406005859375,-198.55599975585938 139.406005859375,-198.55599975585938 C139.406005859375,-198.55599975585938 139.406005859375,301.4440002441406 139.406005859375,301.4440002441406 C139.406005859375,301.4440002441406 -435.593994140625,301.4440002441406 -435.593994140625,301.4440002441406 C-435.593994140625,301.4440002441406 -435.593994140625,-198.55599975585938 -435.593994140625,-198.55599975585938z M-435.593994140625,301.4440002441406 C-435.593994140625,301.4440002441406 139.406005859375,301.4440002441406 139.406005859375,301.4440002441406 C139.406005859375,301.4440002441406 139.406005859375,-198.55599975585938 139.406005859375,-198.55599975585938 C139.406005859375,-198.55599975585938 -435.593994140625,-198.55599975585938 -435.593994140625,-198.55599975585938 C-435.593994140625,-198.55599975585938 -435.593994140625,301.4440002441406 -435.593994140625,301.4440002441406z M20.898000717163086,23.68199920654297 C20.898000717163086,23.68199920654297 8.958000183105469,19.969999313354492 8.958000183105469,19.969999313354492 C8.958000183105469,19.969999313354492 24.027000427246094,-29.503999710083008 24.027000427246094,-29.503999710083008 C24.027000427246094,-29.503999710083008 9.836999893188477,-33.91699981689453 9.836999893188477,-33.91699981689453 C9.836999893188477,-33.91699981689453 -6.0279998779296875,15.3100004196167 -6.0279998779296875,15.3100004196167 C-6.0279998779296875,15.3100004196167 -17.9689998626709,11.597999572753906 -17.9689998626709,11.597999572753906 C-20.56999969482422,10.788999557495117 -23.333999633789062,12.243000030517578 -24.145000457763672,14.845999717712402 C-24.952999114990234,17.447999954223633 -23.49799919128418,20.214000701904297 -20.89699935913086,21.023000717163086 C-20.89699935913086,21.023000717163086 17.968000411987305,33.108001708984375 17.968000411987305,33.108001708984375 C20.570999145507812,33.91699981689453 23.336000442504883,32.4630012512207 24.143999099731445,29.861000061035156 C24.952999114990234,27.257999420166016 23.5,24.490999221801758 20.898000717163086,23.68199920654297z"/><g opacity="1" transform="matrix(1,0,0,1,0,0)"/></g><g opacity="1" transform="matrix(1,0,0,1,85.22000122070312,33.98500061035156)"><path fill="rgb(138,119,174)" fill-opacity="1" d=" M-3.265000104904175,-8.496000289916992 C-3.265000104904175,-8.496000289916992 7.504000186920166,-5.1479997634887695 7.504000186920166,-5.1479997634887695 C11.270000457763672,-3.9769999980926514 13.37399959564209,0.027000000700354576 12.204000473022461,3.7950000762939453 C11.031999588012695,7.563000202178955 7.03000020980835,9.668000221252441 3.263000011444092,8.496000289916992 C3.263000011444092,8.496000289916992 -7.504000186920166,5.1479997634887695 -7.504000186920166,5.1479997634887695 C-11.272000312805176,3.9769999980926514 -13.375,-0.027000000700354576 -12.204999923706055,-3.7939999103546143 C-11.034000396728516,-7.561999797821045 -7.0320000648498535,-9.666999816894531 -3.265000104904175,-8.496000289916992z"/></g><g opacity="1" transform="matrix(1,0,0,1,26.854000091552734,94.48400115966797)"><path fill="rgb(248,246,238)" fill-opacity="1" d=" M-395.2090148925781,-223.97300720214844 C-395.2090148925781,-223.97300720214844 179.79100036621094,-223.97300720214844 179.79100036621094,-223.97300720214844 C179.79100036621094,-223.97300720214844 179.79100036621094,276.0270080566406 179.79100036621094,276.0270080566406 C179.79100036621094,276.0270080566406 -395.2090148925781,276.0270080566406 -395.2090148925781,276.0270080566406 C-395.2090148925781,276.0270080566406 -395.2090148925781,-223.97300720214844 -395.2090148925781,-223.97300720214844z M-395.2090148925781,276.0270080566406 C-395.2090148925781,276.0270080566406 179.79100036621094,276.0270080566406 179.79100036621094,276.0270080566406 C179.79100036621094,276.0270080566406 179.79100036621094,-223.97300720214844 179.79100036621094,-223.97300720214844 C179.79100036621094,-223.97300720214844 -395.2090148925781,-223.97300720214844 -395.2090148925781,-223.97300720214844 C-395.2090148925781,-223.97300720214844 -395.2090148925781,276.0270080566406 -395.2090148925781,276.0270080566406z M-8.571999549865723,-24.10700035095215 C-8.571999549865723,-24.10700035095215 6.275000095367432,-24.68000030517578 6.275000095367432,-24.68000030517578 C6.275000095367432,-24.68000030517578 8.571999549865723,24.075000762939453 8.571999549865723,24.075000762939453 C8.571999549865723,24.075000762939453 -7.10699987411499,24.68000030517578 -7.10699987411499,24.68000030517578 C-7.10699987411499,24.68000030517578 -8.571999549865723,-24.10700035095215 -8.571999549865723,-24.10700035095215z"/><g opacity="1" transform="matrix(1,0,0,1,0,0)"/></g><g opacity="1" transform="matrix(1,0,0,1,25.6200008392334,42.362998962402344)"><path fill="rgb(73,61,102)" fill-opacity="1" d=" M-393.9750061035156,-171.8509979248047 C-393.9750061035156,-171.8509979248047 181.02499389648438,-171.8509979248047 181.02499389648438,-171.8509979248047 C181.02499389648438,-171.8509979248047 181.02499389648438,328.14898681640625 181.02499389648438,328.14898681640625 C181.02499389648438,328.14898681640625 -393.9750061035156,328.14898681640625 -393.9750061035156,328.14898681640625 C-393.9750061035156,328.14898681640625 -393.9750061035156,-171.8509979248047 -393.9750061035156,-171.8509979248047z M-393.9750061035156,328.14898681640625 C-393.9750061035156,328.14898681640625 181.02499389648438,328.14898681640625 181.02499389648438,328.14898681640625 C181.02499389648438,328.14898681640625 181.02499389648438,-171.8509979248047 181.02499389648438,-171.8509979248047 C181.02499389648438,-171.8509979248047 -393.9750061035156,-171.8509979248047 -393.9750061035156,-171.8509979248047 C-393.9750061035156,-171.8509979248047 -393.9750061035156,328.14898681640625 -393.9750061035156,328.14898681640625z M20.145000457763672,19.823999404907227 C20.145000457763672,19.823999404907227 3.1610000133514404,20.479999542236328 3.1610000133514404,20.479999542236328 C3.1610000133514404,20.479999542236328 7.650000095367432,20.305999755859375 7.650000095367432,20.305999755859375 C7.650000095367432,20.305999755859375 5.368000030517578,-31.36199951171875 5.368000030517578,-31.36199951171875 C5.368000030517578,-31.36199951171875 -9.479999542236328,-30.790000915527344 -9.479999542236328,-30.790000915527344 C-9.479999542236328,-30.790000915527344 -8.029000282287598,20.910999298095703 -8.029000282287598,20.910999298095703 C-8.029000282287598,20.910999298095703 -20.524999618530273,21.393999099731445 -20.524999618530273,21.393999099731445 C-23.24799919128418,21.499000549316406 -25.3700008392334,23.79199981689453 -25.26300048828125,26.516000747680664 C-25.159000396728516,29.23900032043457 -22.867000579833984,31.36199951171875 -20.143999099731445,31.256999969482422 C-20.143999099731445,31.256999969482422 20.525999069213867,29.687000274658203 20.525999069213867,29.687000274658203 C23.249000549316406,29.582000732421875 25.3700008392334,27.288999557495117 25.264999389648438,24.565000534057617 C25.15999984741211,21.841999053955078 22.868000030517578,19.7189998626709 20.145000457763672,19.823999404907227z"/><g opacity="1" transform="matrix(1,0,0,1,0,0)"/></g><g opacity="1" transform="matrix(1,0,0,1,23.427000045776367,7.758999824523926)"><path fill="rgb(138,119,174)" fill-opacity="1" d=" M-391.7820129394531,-137.2469940185547 C-391.7820129394531,-137.2469940185547 183.21800231933594,-137.2469940185547 183.21800231933594,-137.2469940185547 C183.21800231933594,-137.2469940185547 183.21800231933594,362.75299072265625 183.21800231933594,362.75299072265625 C183.21800231933594,362.75299072265625 -391.7820129394531,362.75299072265625 -391.7820129394531,362.75299072265625 C-391.7820129394531,362.75299072265625 -391.7820129394531,-137.2469940185547 -391.7820129394531,-137.2469940185547z M-391.7820129394531,362.75299072265625 C-391.7820129394531,362.75299072265625 183.21800231933594,362.75299072265625 183.21800231933594,362.75299072265625 C183.21800231933594,362.75299072265625 183.21800231933594,-137.2469940185547 183.21800231933594,-137.2469940185547 C183.21800231933594,-137.2469940185547 -391.7820129394531,-137.2469940185547 -391.7820129394531,-137.2469940185547 C-391.7820129394531,-137.2469940185547 -391.7820129394531,362.75299072265625 -391.7820129394531,362.75299072265625z M-5.9079999923706055,-6.921999931335449 C-5.9079999923706055,-6.921999931335449 5.359000205993652,-7.35699987411499 5.359000205993652,-7.35699987411499 C9.300999641418457,-7.508999824523926 12.618000030517578,-4.435999870300293 12.770000457763672,-0.49399998784065247 C12.92199993133545,3.4489998817443848 9.85200023651123,6.76800012588501 5.910999774932861,6.920000076293945 C5.910999774932861,6.920000076293945 -5.35699987411499,7.355000019073486 -5.35699987411499,7.355000019073486 C-9.298999786376953,7.507999897003174 -12.618000030517578,4.434000015258789 -12.770000457763672,0.492000013589859 C-12.92300033569336,-3.4509999752044678 -9.848999977111816,-6.769999980926514 -5.9079999923706055,-6.921999931335449z"/><g opacity="1" transform="matrix(1,0,0,1,0,0)"/></g></g><g transform="matrix(1,0,0,1,321.9100036621094,229.39999389648438)" opacity="1" style="display: block;"><g opacity="1" transform="matrix(1,0,0,1,55.09000015258789,88.58999633789062)"><path fill="rgb(255,220,73)" fill-opacity="1" d=" M54.84000015258789,-78.05999755859375 C54.84000015258789,-78.05999755859375 54.84000015258789,78.37000274658203 54.84000015258789,78.37000274658203 C50.43000030517578,77.55999755859375 45.861000061035156,76.87999725341797 41.130001068115234,76.35900115966797 C35.470001220703125,75.72000122070312 29.59000015258789,75.30000305175781 23.56999969482422,75.12000274658203 C21.231000900268555,75.05000305175781 18.8799991607666,75.01000213623047 16.5,75.01000213623047 C16.049999237060547,75.01000213623047 15.600000381469727,75.01000213623047 15.151000022888184,75.0199966430664 C-12.550000190734863,75.18000030517578 -37.40999984741211,80.27899932861328 -54.689998626708984,88.33999633789062 C-54.790000915527344,87.87000274658203 -54.84000015258789,87.38999938964844 -54.84000015258789,86.89900207519531 C-54.84000015258789,86.89900207519531 -54.84000015258789,-78.05999755859375 -54.84000015258789,-78.05999755859375 C-54.84000015258789,-83.73999786376953 -48.369998931884766,-88.33999633789062 -40.388999938964844,-88.33999633789062 C-40.388999938964844,-88.33999633789062 40.38999938964844,-88.33999633789062 40.38999938964844,-88.33999633789062 C42.529998779296875,-88.33999633789062 44.56999969482422,-88.01000213623047 46.4010009765625,-87.41000366210938 C51.380001068115234,-85.79000091552734 54.84000015258789,-82.20999908447266 54.84000015258789,-78.05999755859375z"/></g><g opacity="1" transform="matrix(1,0,0,1,95.84500122070312,83.6050033569336)"><path fill="rgb(255,230,124)" fill-opacity="1" d=" M-418.7550048828125,-314.0050048828125 C-418.7550048828125,-314.0050048828125 156.2449951171875,-314.0050048828125 156.2449951171875,-314.0050048828125 C156.2449951171875,-314.0050048828125 156.2449951171875,185.9949951171875 156.2449951171875,185.9949951171875 C156.2449951171875,185.9949951171875 -418.7550048828125,185.9949951171875 -418.7550048828125,185.9949951171875 C-418.7550048828125,185.9949951171875 -418.7550048828125,-314.0050048828125 -418.7550048828125,-314.0050048828125z M-418.7550048828125,185.9949951171875 C-418.7550048828125,185.9949951171875 156.2449951171875,185.9949951171875 156.2449951171875,185.9949951171875 C156.2449951171875,185.9949951171875 156.2449951171875,-314.0050048828125 156.2449951171875,-314.0050048828125 C156.2449951171875,-314.0050048828125 -418.7550048828125,-314.0050048828125 -418.7550048828125,-314.0050048828125 C-418.7550048828125,-314.0050048828125 -418.7550048828125,185.9949951171875 -418.7550048828125,185.9949951171875z M14.085000038146973,-73.07499694824219 C14.085000038146973,-73.07499694824219 14.085000038146973,83.3550033569336 14.085000038146973,83.3550033569336 C9.675000190734863,82.54499816894531 5.105999946594238,81.86499786376953 0.375,81.34400177001953 C0.375,81.34400177001953 0.375,-73.07499694824219 0.375,-73.07499694824219 C0.375,-78.75499725341797 -6.09499979019165,-83.3550033569336 -14.085000038146973,-83.3550033569336 C-14.085000038146973,-83.3550033569336 -0.36500000953674316,-83.3550033569336 -0.36500000953674316,-83.3550033569336 C1.774999976158142,-83.3550033569336 3.815000057220459,-83.0250015258789 5.645999908447266,-82.42500305175781 C10.625,-80.80500030517578 14.085000038146973,-77.2249984741211 14.085000038146973,-73.07499694824219z"/><g opacity="1" transform="matrix(1,0,0,1,0,0)"/></g><g opacity="1" transform="matrix(1,0,0,1,55.505001068115234,60.77000045776367)"><path fill="rgb(225,192,51)" fill-opacity="1" d=" M-36.78799819946289,0.0010000000474974513 C-36.78799819946289,20.325000762939453 -20.31800079345703,36.80099868774414 -0.0010000000474974513,36.80099868774414 C20.316999435424805,36.80099868774414 36.78799819946289,20.325000762939453 36.78799819946289,0.0010000000474974513 C36.78799819946289,-20.322999954223633 20.316999435424805,-36.80099868774414 -0.0010000000474974513,-36.80099868774414 C-20.31800079345703,-36.80099868774414 -36.78799819946289,-20.322999954223633 -36.78799819946289,0.0010000000474974513z"/></g><g opacity="1" transform="matrix(1,0,0,1,52.61000061035156,57.04899978637695)"><path fill="rgb(251,244,211)" fill-opacity="1" d=" M-34.72100067138672,0 C-34.72100067138672,19.183000564575195 -19.176000595092773,34.733001708984375 0,34.733001708984375 C19.174999237060547,34.733001708984375 34.72100067138672,19.183000564575195 34.72100067138672,0 C34.72100067138672,-19.183000564575195 19.174999237060547,-34.733001708984375 0,-34.733001708984375 C-19.176000595092773,-34.733001708984375 -34.72100067138672,-19.183000564575195 -34.72100067138672,0z"/></g><g opacity="1" transform="matrix(1,0,0,1,54.263999938964844,59.11600112915039)"><path fill="rgb(255,255,255)" fill-opacity="1" d=" M1.6540000438690186,-32.66600036621094 C11.689000129699707,-32.66600036621094 20.725000381469727,-28.402000427246094 27.06399917602539,-21.591999053955078 C30.851999282836914,-16.027000427246094 33.06800079345703,-9.307999610900879 33.06800079345703,-2.065999984741211 C33.06800079345703,17.114999771118164 17.523000717163086,32.66600036621094 -1.652999997138977,32.66600036621094 C-11.689000129699707,32.66600036621094 -20.725000381469727,28.402000427246094 -27.06399917602539,21.591999053955078 C-30.851999282836914,16.027000427246094 -33.06800079345703,9.307000160217285 -33.06800079345703,2.066999912261963 C-33.06800079345703,-17.114999771118164 -17.523000717163086,-32.66600036621094 1.6540000438690186,-32.66600036621094z"/></g></g><g transform="matrix(1,0,0,1,353.0657958984375,273.9463195800781)" opacity="1" style="display: block;"><g opacity="1" transform="matrix(1,0,0,1,10.170999526977539,10.173999786376953)"><path fill="rgb(82,68,104)" fill-opacity="1" d=" M-9.920999526977539,0 C-9.920999526977539,5.480000019073486 -5.479000091552734,9.923999786376953 0,9.923999786376953 C5.478000164031982,9.923999786376953 9.920999526977539,5.480000019073486 9.920999526977539,0 C9.920999526977539,-5.480000019073486 5.478000164031982,-9.923999786376953 0,-9.923999786376953 C-5.479000091552734,-9.923999786376953 -9.920999526977539,-5.480000019073486 -9.920999526977539,0z"/></g></g><g transform="matrix(1,0,0,1,291.5690002441406,256.9830017089844)" opacity="1" style="display: block;"><g opacity="1" transform="matrix(1,0,0,1,87.76699829101562,63.16899871826172)"><path fill="rgb(116,90,158)" fill-opacity="1" d=" M-380.33599853515625,-321.1520080566406 C-380.33599853515625,-321.1520080566406 194.66400146484375,-321.1520080566406 194.66400146484375,-321.1520080566406 C194.66400146484375,-321.1520080566406 194.66400146484375,178.84800720214844 194.66400146484375,178.84800720214844 C194.66400146484375,178.84800720214844 -380.33599853515625,178.84800720214844 -380.33599853515625,178.84800720214844 C-380.33599853515625,178.84800720214844 -380.33599853515625,-321.1520080566406 -380.33599853515625,-321.1520080566406z M-380.33599853515625,178.84800720214844 C-380.33599853515625,178.84800720214844 194.66400146484375,178.84800720214844 194.66400146484375,178.84800720214844 C194.66400146484375,178.84800720214844 194.66400146484375,-321.1520080566406 194.66400146484375,-321.1520080566406 C194.66400146484375,-321.1520080566406 -380.33599853515625,-321.1520080566406 -380.33599853515625,-321.1520080566406 C-380.33599853515625,-321.1520080566406 -380.33599853515625,178.84800720214844 -380.33599853515625,178.84800720214844z M71.7760009765625,-45.402000427246094 C67.74299621582031,-43.59600067138672 64.53600311279297,-41.57099914550781 61.97800064086914,-39.53499984741211 C68.54000091552734,-51.56800079345703 66.4800033569336,-62.11600112915039 59.90700149536133,-62.50600051879883 C52.9640007019043,-62.91899871826172 51.61800003051758,-40.91899871826172 51.362998962402344,-31.031999588012695 C29.434999465942383,-20.410999298095703 -53.25400161743164,-33.71900177001953 -58.35200119018555,-34.63999938964844 C-87.51699829101562,-39.90599822998047 -43.83399963378906,62.91899871826172 -2.921999931335449,62.91899871826172 C31.2189998626709,62.91899871826172 58.999000549316406,-5.013000011444092 58.52799987792969,-26.257999420166016 C86.00700378417969,-27.003000259399414 87.51699829101562,-52.44900131225586 71.7760009765625,-45.402000427246094z"/><g opacity="1" transform="matrix(1,0,0,1,0,0)"/></g><g opacity="1" transform="matrix(1,0,0,1,116.25599670410156,78.68900299072266)"><path fill="rgb(98,78,130)" fill-opacity="1" d=" M-408.82501220703125,-336.6719970703125 C-408.82501220703125,-336.6719970703125 166.1750030517578,-336.6719970703125 166.1750030517578,-336.6719970703125 C166.1750030517578,-336.6719970703125 166.1750030517578,163.3280029296875 166.1750030517578,163.3280029296875 C166.1750030517578,163.3280029296875 -408.82501220703125,163.3280029296875 -408.82501220703125,163.3280029296875 C-408.82501220703125,163.3280029296875 -408.82501220703125,-336.6719970703125 -408.82501220703125,-336.6719970703125z M-408.82501220703125,163.3280029296875 C-408.82501220703125,163.3280029296875 166.1750030517578,163.3280029296875 166.1750030517578,163.3280029296875 C166.1750030517578,163.3280029296875 166.1750030517578,-336.6719970703125 166.1750030517578,-336.6719970703125 C166.1750030517578,-336.6719970703125 -408.82501220703125,-336.6719970703125 -408.82501220703125,-336.6719970703125 C-408.82501220703125,-336.6719970703125 -408.82501220703125,163.3280029296875 -408.82501220703125,163.3280029296875z M29.99799919128418,-42.779998779296875 C31.410999298095703,-22.756000518798828 4.144000053405762,46.04399871826172 -31.410999298095703,47.4010009765625 C-31.410999298095703,47.4010009765625 -4.308000087738037,23.687000274658203 15.057999610900879,-7.644999980926514 C28.406999588012695,-29.246000289916992 29.67300033569336,-47.4010009765625 29.99799919128418,-42.779998779296875z"/><g opacity="1" transform="matrix(1,0,0,1,0,0)"/></g></g><g clip-path="url(#__lottie_element_239)" style="mix-blend-mode: multiply; display: none;"><g clip-path="url(#__lottie_element_240)"><g style="display: none;"><g><path/><g/></g></g></g></g><g clip-path="url(#__lottie_element_232)" style="mix-blend-mode: multiply; display: none;"><g clip-path="url(#__lottie_element_233)"><g style="display: none;"><g><path/><g/></g></g></g></g><g clip-path="url(#__lottie_element_225)" style="mix-blend-mode: multiply; display: none;"><g clip-path="url(#__lottie_element_226)"><g style="display: none;"><g><path/><g/></g></g></g></g><g clip-path="url(#__lottie_element_218)" style="mix-blend-mode: multiply; display: none;"><g clip-path="url(#__lottie_element_219)"><g style="display: none;"><g><path/><g/></g></g></g></g><g clip-path="url(#__lottie_element_211)" style="mix-blend-mode: multiply; display: none;"><g clip-path="url(#__lottie_element_212)"><g style="display: none;"><g><path/><g/></g></g></g></g><g clip-path="url(#__lottie_element_204)" style="mix-blend-mode: multiply; display: none;"><g clip-path="url(#__lottie_element_205)"><g style="display: none;"><g><path/><g/></g></g></g></g><g clip-path="url(#__lottie_element_197)" style="mix-blend-mode: multiply; display: none;"><g clip-path="url(#__lottie_element_198)"><g style="display: none;"><g><path/><g/></g></g></g></g><g clip-path="url(#__lottie_element_190)" style="mix-blend-mode: multiply; display: none;"><g clip-path="url(#__lottie_element_191)"><g style="display: none;"><g><path/><g/></g></g></g></g><g clip-path="url(#__lottie_element_183)" style="mix-blend-mode: multiply; display: none;"><g clip-path="url(#__lottie_element_184)"><g style="display: none;"><g><path/><g/></g></g></g></g><g clip-path="url(#__lottie_element_176)" style="mix-blend-mode: multiply; display: none;"><g clip-path="url(#__lottie_element_177)"><g style="display: none;"><g><path/><g/></g></g></g></g><g clip-path="url(#__lottie_element_169)" style="mix-blend-mode: multiply; display: none;"><g clip-path="url(#__lottie_element_170)"><g style="display: none;"><g><path/><g/></g></g></g></g><g clip-path="url(#__lottie_element_162)" style="mix-blend-mode: multiply; display: none;"><g clip-path="url(#__lottie_element_163)"><g style="display: none;"><g><path/><g/></g></g></g></g><g clip-path="url(#__lottie_element_155)" style="mix-blend-mode: multiply; display: none;"><g clip-path="url(#__lottie_element_156)"><g style="display: none;"><g><path/><g/></g></g></g></g><g clip-path="url(#__lottie_element_148)" style="mix-blend-mode: multiply; display: none;"><g clip-path="url(#__lottie_element_149)"><g style="display: none;"><g><path/><g/></g></g></g></g><g clip-path="url(#__lottie_element_141)" style="mix-blend-mode: multiply; display: none;"><g clip-path="url(#__lottie_element_142)"><g style="display: none;"><g><path/><g/></g></g></g></g><g clip-path="url(#__lottie_element_134)" style="mix-blend-mode: multiply; display: none;"><g clip-path="url(#__lottie_element_135)"><g style="display: none;"><g><path/><g/></g></g></g></g><g clip-path="url(#__lottie_element_127)" style="mix-blend-mode: multiply; display: none;"><g clip-path="url(#__lottie_element_128)"><g style="display: none;"><g><path/><g/></g></g></g></g><g clip-path="url(#__lottie_element_120)" style="mix-blend-mode: multiply; display: none;"><g clip-path="url(#__lottie_element_121)"><g style="display: none;"><g><path/><g/></g></g></g></g></g></svg>